<?xml version="1.0" encoding="utf-8"?>

<!DOCTYPE svg PUBLIC "-//W3C//DTD SVG 1.1//EN" "http://www.w3.org/Graphics/SVG/1.1/DTD/svg11.dtd">
<!-- Uploaded to: SVG Repo, www.svgrepo.com, Generator: SVG Repo Mixer Tools -->
<svg version="1.1" id="_x32_" xmlns="http://www.w3.org/2000/svg" xmlns:xlink="http://www.w3.org/1999/xlink" 
	 viewBox="0 0 512 512"  xml:space="preserve">
<style type="text/css">
	.st0{fill:#000000;}
</style>
<g>
	<path class="st0" d="M379.448,0H132.552C110.31,0,92.177,18.175,92.177,40.401v431.207C92.177,493.8,110.31,512,132.552,512
		h246.895c22.202,0,40.376-18.2,40.376-40.392v-129.03V40.401C419.823,18.175,401.649,0,379.448,0z M256,473.953
		c-6.671,0-12.094-5.432-12.094-12.12c0-6.68,5.423-12.111,12.094-12.111c6.663,0,12.137,5.432,12.137,12.111
		C268.136,468.522,262.672,473.953,256,473.953z M394.612,424.46H117.405V69.106h277.206V424.46z"/>
	<polygon class="st0" points="322.336,268.872 304.269,250.805 304.269,250.796 268.776,286.29 268.776,142.53 243.223,142.53 
		243.223,286.29 207.731,250.796 189.664,268.88 256,335.208 	"/>
	<rect x="187.858" y="338.436" class="st0" width="136.282" height="25.553"/>
</g>
</svg>